HIERARCHY
ROOT root
{
	OFFSET 0.000000 0.000000 0.000000
	CHANNELS 6 Xposition Yposition Zposition Zrotation Yrotation Xrotation
	JOINT lhip
	{
		OFFSET 0.058581 -0.082280 -0.017664
		CHANNELS 3 Zrotation Yrotation Xrotation
		JOINT lknee
		{
			OFFSET 0.043451 -0.386469 0.008037
			CHANNELS 3 Zrotation Yrotation Xrotation
			JOINT lankle
			{
				OFFSET -0.014790 -0.426874 -0.037428
				CHANNELS 3 Zrotation Yrotation Xrotation
				JOINT ltoe
				{
					OFFSET 0.041054 -0.060286 0.122042
					CHANNELS 3 Zrotation Yrotation Xrotation
					End Site
					{
						OFFSET 0.000000 0.000000 0.000000
					}
				}
			}
		}
	}
	JOINT rhip
	{
		OFFSET -0.060310 -0.090513 -0.013543
		CHANNELS 3 Zrotation Yrotation Xrotation
		JOINT rknee
		{
			OFFSET -0.043257 -0.383688 -0.004843
			CHANNELS 3 Zrotation Yrotation Xrotation
			JOINT rankle
			{
				OFFSET 0.019056 -0.420046 -0.034562
				CHANNELS 3 Zrotation Yrotation Xrotation
				JOINT rtoe
				{
					OFFSET -0.034840 -0.062106 0.130323
					CHANNELS 3 Zrotation Yrotation Xrotation
					End Site
					{
						OFFSET 0.000000 0.000000 0.000000
					}
				}
			}
		}
	}
	JOINT lowerback
	{
		OFFSET 0.004439 0.124404 -0.038385
		CHANNELS 3 Zrotation Yrotation Xrotation
		JOINT upperback
		{
			OFFSET 0.004488 0.137956 0.026820
			CHANNELS 3 Zrotation Yrotation Xrotation
			JOINT chest
			{
				OFFSET -0.002265 0.056032 0.002855
				CHANNELS 3 Zrotation Yrotation Xrotation
				JOINT lowerneck
				{
					OFFSET -0.013390 0.211636 -0.033468
					CHANNELS 3 Zrotation Yrotation Xrotation
					JOINT upperneck
					{
						OFFSET 0.010113 0.088937 0.050410
						CHANNELS 3 Zrotation Yrotation Xrotation
						End Site
						{
							OFFSET 0.000000 0.000000 0.000000
						}
					}
				}
				JOINT lclavicle
				{
					OFFSET 0.071702 0.114000 -0.018898
					CHANNELS 3 Zrotation Yrotation Xrotation
					JOINT lshoulder
					{
						OFFSET 0.122921 0.045205 -0.019046
						CHANNELS 3 Zrotation Yrotation Xrotation
						JOINT lelbow
						{
							OFFSET 0.255332 -0.015649 -0.022946
							CHANNELS 3 Zrotation Yrotation Xrotation
							JOINT lwrist
							{
								OFFSET 0.265709 0.012698 -0.007375
								CHANNELS 3 Zrotation Yrotation Xrotation
								End Site
								{
									OFFSET 0.000000 0.000000 0.000000
								}
							}
						}
					}
				}
				JOINT rclavicle
				{
					OFFSET -0.082954 0.112472 -0.023707
					CHANNELS 3 Zrotation Yrotation Xrotation
					JOINT rshoulder
					{
						OFFSET -0.113228 0.046853 -0.008472
						CHANNELS 3 Zrotation Yrotation Xrotation
						JOINT relbow
						{
							OFFSET -0.260127 -0.014369 -0.031269
							CHANNELS 3 Zrotation Yrotation Xrotation
							JOINT rwrist
							{
								OFFSET -0.269108 0.006794 -0.006027
								CHANNELS 3 Zrotation Yrotation Xrotation
								End Site
								{
									OFFSET 0.000000 0.000000 0.000000
								}
							}
						}
					}
				}
			}
		}
	}
}
MOTION
Frames: 10
Frame Time: 0.033333
0.187400 2.665181 0.999287 -5.941505 1.253244 91.265487 -1.047125 -0.894852 -0.639342 -2.690166 -4.237635 -2.324459 4.594974 11.787263 -3.722579 0.000000 -0.000000 0.000000 1.538794 -0.283660 -3.841032 5.227614 -2.114461 2.731924 3.194796 -4.677996 -13.730751 0.000000 -0.000000 0.000000 -0.652701 0.490137 12.868125 0.444446 -1.799004 -2.892517 2.093725 -0.155423 -2.119781 1.080051 -2.776486 -2.518567 2.696651 -5.599939 0.801860 -22.670916 2.150656 0.253869 -53.686813 -9.138336 2.714661 18.815734 -19.742015 -23.370536 1.075438 -3.707815 -22.360941 21.009307 1.965570 0.212477 54.580310 3.612960 14.100852 -14.690167 30.106474 -1.548368 -3.127861 3.885102 0.445503 
0.187701 2.665826 0.999045 -5.991550 1.266944 91.155587 -1.101514 -1.037685 -0.774187 -2.667325 -4.278800 -1.895615 4.400031 11.754484 -3.990349 0.000000 -0.000000 0.000000 1.531487 -0.286205 -4.072984 5.404123 -2.561799 3.177398 3.347285 -4.941602 -13.172947 0.000000 -0.000000 0.000000 -0.673877 0.480239 13.215554 0.427493 -1.652264 -2.992361 2.176625 -0.302416 -1.845340 1.058280 -2.709699 -3.077955 2.761393 -5.312660 0.803899 -22.687726 1.932404 0.481927 -53.723300 -9.306727 2.448889 19.303684 -20.358452 -24.056684 0.616984 -3.356185 -22.792552 20.776984 2.113797 0.207662 54.629355 3.679395 14.102329 -14.519757 30.455783 -1.905024 -2.158252 3.444111 -0.693916 
0.188010 2.666516 0.998847 -6.023533 1.353900 91.192834 -0.971202 -1.045036 -1.057073 -2.777123 -4.237017 -1.556396 4.409251 11.821952 -4.072862 0.000000 -0.000000 0.000000 1.612179 -0.361525 -4.399939 5.553060 -3.030507 3.544615 3.014888 -5.070485 -12.497035 0.000000 -0.000000 0.000000 -0.561990 0.467663 13.494290 0.407265 -1.639500 -3.064344 2.218377 -0.452781 -1.671362 1.006371 -2.519955 -3.536044 2.894703 -5.078419 0.684663 -22.691310 1.673480 0.663940 -53.819209 -8.948316 2.662443 19.528674 -21.309675 -23.730606 1.479984 -2.960396 -22.272654 20.664547 2.342874 0.191139 54.568674 3.680406 14.039692 -13.933065 30.670160 -2.069806 -2.485511 3.558444 -1.726152 
0.188285 2.668258 0.998728 -6.082930 1.457867 91.734556 -0.927619 -1.469798 -2.132840 -2.645192 -3.850129 -0.967436 5.076066 12.085354 -3.004375 0.000000 -0.000000 0.000000 1.791316 -0.276088 -5.293764 5.601056 -3.300499 3.719329 2.472903 -5.589414 -11.365930 0.000000 -0.000000 0.000000 -0.444788 0.305164 13.556508 0.471388 -1.721495 -3.503690 2.194753 -0.669229 -1.103531 1.045124 -2.363147 -5.099641 3.170893 -4.985845 1.199332 -22.858345 1.443694 0.780781 -53.454063 -8.682011 3.062757 19.327774 -22.511404 -24.268933 2.980602 -2.525940 -22.188194 20.748575 2.794339 0.097132 54.282217 3.891665 14.420002 -13.118756 30.586825 -2.646194 -2.910508 3.818552 -2.998995 
0.188429 2.668652 0.998770 -6.087429 1.467942 91.955426 -0.905352 -1.592332 -2.402091 -2.722702 -3.843923 -0.968594 5.167229 12.131253 -2.958266 0.000000 -0.000000 0.000000 1.810165 -0.283334 -5.565890 5.580113 -3.231699 3.695250 2.488665 -5.654160 -11.277289 0.000000 -0.000000 0.000000 -0.456272 0.326119 13.447387 0.522898 -1.714145 -3.541986 2.210950 -0.747655 -1.020247 1.126404 -2.350932 -5.280855 3.087790 -5.046609 1.246090 -22.914637 1.353974 0.845595 -53.398597 -8.498577 3.380034 19.247916 -23.043226 -23.736030 3.027906 -2.559756 -21.625771 20.756348 2.852081 0.113122 54.173710 3.931427 14.455375 -12.769671 30.548858 -2.615778 -2.916942 3.939501 -3.572675 
0.188840 2.669328 0.998793 -6.034264 1.476115 92.323076 -1.052917 -1.823654 -2.583623 -2.364815 -3.715383 -1.505850 5.865566 12.232239 -1.115248 0.000000 -0.000000 0.000000 1.803311 -0.247060 -5.991592 5.587451 -3.183609 3.610747 2.225609 -5.818692 -11.141633 0.000000 -0.000000 0.000000 -0.448053 0.290087 13.332808 0.533317 -1.691142 -3.631650 2.258972 -0.842597 -0.972172 1.004712 -2.470212 -5.095547 3.302583 -5.009542 1.175671 -22.715009 1.367405 1.047072 -53.442946 -8.295959 3.834008 19.341472 -24.071739 -24.141746 4.046856 -2.081442 -22.418317 20.720298 2.879446 0.260942 54.073787 3.982787 14.497190 -12.134394 30.485754 -2.882362 -3.356564 4.125285 -4.526895 
0.189417 2.669961 0.998715 -5.984302 1.495426 92.585258 -1.047391 -1.841323 -2.912187 -2.384199 -3.752738 -1.540888 5.753001 12.173797 -1.268361 0.000000 -0.000000 0.000000 1.768914 -0.265292 -6.356282 5.600250 -3.353970 3.635435 2.418247 -5.681056 -11.159828 0.000000 -0.000000 0.000000 -0.362048 0.287778 13.433593 0.543364 -1.699128 -3.854541 2.256297 -0.896007 -0.884035 0.971298 -2.337501 -5.156857 3.304182 -4.984043 1.258669 -22.629417 1.159550 0.961725 -53.670202 -8.488887 4.073666 19.324500 -23.844438 -23.252757 4.241785 -2.320142 -21.156992 20.603593 2.913070 0.200101 54.047756 3.875478 14.430965 -11.483532 30.363328 -2.776538 -3.192063 4.375763 -5.596438 
0.190046 2.670035 0.998656 -5.960345 1.531147 92.698179 -1.044368 -1.769744 -2.765063 -2.339216 -3.800544 -2.056555 5.758765 12.170753 -1.174456 0.000000 -0.000000 0.000000 1.672205 -0.371807 -6.452929 5.742032 -3.414544 3.666047 2.420412 -5.497320 -10.907086 0.000000 -0.000000 0.000000 -0.234857 0.265088 13.422275 0.525594 -1.688578 -3.644577 2.218754 -0.916086 -1.027370 0.968263 -2.346739 -4.820546 3.425451 -5.043239 1.091493 -22.568369 1.211119 1.039542 -53.684838 -8.629346 4.167639 19.485484 -24.295958 -23.217126 3.338498 -2.596421 -21.838974 20.643442 2.942437 0.349438 53.918526 3.924325 14.352397 -11.006244 30.310878 -2.782565 -2.570816 4.614038 -6.515357 
0.190329 2.670407 0.998513 -6.043015 1.527280 92.873566 -1.077252 -1.852169 -2.756332 -2.304421 -3.805603 -2.489843 5.848180 12.229449 -0.817992 0.000000 -0.000000 0.000000 1.684510 -0.064192 -6.733240 5.660383 -3.517768 3.656843 2.371384 -5.669757 -11.002366 0.000000 -0.000000 0.000000 -0.253832 0.179254 13.381314 0.514171 -1.568578 -3.638511 2.192100 -0.957645 -0.926977 1.082397 -2.286392 -4.997699 3.458868 -5.116163 1.212296 -22.637934 1.371165 0.981612 -53.532478 -8.759805 4.366667 19.706655 -24.566760 -23.706121 3.616929 -2.809847 -22.304614 20.793203 2.972825 0.218935 53.756412 4.073738 14.635431 -10.408572 30.034504 -2.975190 -2.642207 5.103249 -7.551733 
0.190773 2.670425 0.998545 -6.010911 1.474007 92.928151 -1.023584 -1.494913 -2.773927 -2.525650 -3.827766 -2.491313 5.346374 12.049392 -2.550297 0.000000 -0.000000 0.000000 1.585132 -0.114089 -6.799871 5.641386 -3.599458 3.655797 2.668934 -5.526948 -11.075979 0.000000 -0.000000 0.000000 -0.268759 0.119455 13.525520 0.491391 -1.582961 -3.706083 2.170573 -0.994778 -0.912329 1.229874 -2.236712 -5.129596 3.366989 -5.271167 1.344993 -22.704654 1.372876 0.965070 -53.386707 -8.818237 4.373808 19.783096 -24.607121 -23.786344 3.293147 -3.325375 -22.251200 20.843661 2.966156 0.067811 53.686523 4.143593 14.729261 -9.754023 29.875463 -2.882506 -2.255860 5.447081 -8.268674 
